<svg id="Capa_1" enable-background="new 0 0 512 512" 
  height="512" width="512" viewBox="0 0 512 512"
  xmlns="http://www.w3.org/2000/svg">
  <g>
    <path d="m462.452 61.936h-412.904c-12.69 0-24.266 4.769-33.032 12.615l-8.362 36.934v240.088c0 27.365 22.183 49.549 49.548 49.549h404.749l36.934-8.863c7.845-8.766 12.614-20.343 12.614-33.032v-247.743c.001-27.365-22.182-49.548-49.547-49.548z"
      fill="#019dd2"/>
    <path d="m412.903 450.064h-313.806c-4.565 0-8.258-3.698-8.258-8.258s3.694-8.258 8.258-8.258h313.806c4.565 0 8.258 3.698 8.258 8.258s-3.693 8.258-8.258 8.258z"
      fill="#019dd2"/>
    <path d="m342.068 220.582-128.23-64.115c-1.147-.574-2.314-1.008-3.487-1.298l-13.238 16.07v128.23l16.725 6.78 128.23-64.115 5.317-17.388c-1.391-1.657-3.164-3.087-5.317-4.164z"
      fill="#fff"/>
    <path d="m49.548 392.258c-18.243 0-33.032-14.789-33.032-33.032v-284.676c-10.115 9.072-16.516 22.278-16.516 36.934v247.742c0 27.365 22.183 49.548 49.548 49.548h412.903c14.656 0 27.864-6.401 36.934-16.516z"
      fill="#00a8e1"/>
    <path d="m246.204 275.369c-16.472 8.236-35.854-3.742-35.854-22.159v-98.042c-10.053-2.49-20.415 5.073-20.415 16.071v128.231c0 12.278 12.921 20.263 23.902 14.772l128.23-64.115c10.014-5.007 11.778-17.664 5.317-25.38z"
      fill="#fff"/>
  </g>
</svg>